<svg xmlns="http://www.w3.org/2000/svg" xmlns:xlink="http://www.w3.org/1999/xlink" width="186" height="63.107" viewBox="0 0 186 63.107"><defs><style>.a,.b{fill:none;}.a{clip-rule:evenodd;}.c{clip-path:url(#a);}.d{clip-path:url(#b);}.e{clip-path:url(#c);}.f{fill:#fff;}.g{clip-path:url(#e);}.h{clip-path:url(#g);}</style><clipPath id="a"><path class="a" d="M7.977-95A7.979,7.979,0,0,0,0-87.023v47.154a7.976,7.976,0,0,0,7.977,7.977H178.023A7.979,7.979,0,0,0,186-39.869V-87.023A7.976,7.976,0,0,0,178.023-95Z" transform="translate(0 95)"/></clipPath><clipPath id="b"><path class="b" d="M-48,67.571H483.429V-331H-48Z" transform="translate(48 331)"/></clipPath><clipPath id="c"><path class="a" d="M100.524-35.061H97.358l-1.734-5.453H89.6l-1.652,5.453H84.86l5.973-18.565h3.689l6,18.565Zm9.826-13.661a4.961,4.961,0,0,1,3.95,1.872,7.378,7.378,0,0,1,1.584,4.931,7.61,7.61,0,0,1-1.844,5.4,5.392,5.392,0,0,1-4.1,1.763,4.1,4.1,0,0,1-3.8-1.9h-.056v7.052H103.11V-44.041q0-2.147-.11-4.407h2.614l.166,2.122h.056A4.951,4.951,0,0,1,110.35-48.722Zm15.389,0a4.969,4.969,0,0,1,3.951,1.872,7.4,7.4,0,0,1,1.581,4.931,7.6,7.6,0,0,1-1.846,5.4,5.387,5.387,0,0,1-4.1,1.763,4.1,4.1,0,0,1-3.8-1.9h-.056v7.052H118.5V-44.041q0-2.147-.11-4.407H121l.166,2.122h.056A4.948,4.948,0,0,1,125.739-48.722Zm40.9,0a6.108,6.108,0,0,1,4.735,1.956,7.039,7.039,0,0,1,1.709,4.9,7.346,7.346,0,0,1-1.762,5.068,6.29,6.29,0,0,1-4.9,2.038,5.981,5.981,0,0,1-4.691-1.954,7.121,7.121,0,0,1-1.748-4.93,7.273,7.273,0,0,1,1.8-5.095A6.237,6.237,0,0,1,166.642-48.721ZM143.55-53.9a9,9,0,0,1,4.21.882l-.743,2.425a7.3,7.3,0,0,0-3.551-.854,3.593,3.593,0,0,0-2.448.771,2.2,2.2,0,0,0-.743,1.681,2.27,2.27,0,0,0,.852,1.818,9.624,9.624,0,0,0,2.7,1.433,9.157,9.157,0,0,1,3.523,2.257,4.717,4.717,0,0,1,1.126,3.218,4.949,4.949,0,0,1-1.648,3.856,7.3,7.3,0,0,1-5.054,1.625,8.843,8.843,0,0,1-4.809-1.156l.689-2.479a8.145,8.145,0,0,0,4.3,1.186,4.061,4.061,0,0,0,2.617-.759,2.479,2.479,0,0,0,.934-2.028,2.587,2.587,0,0,0-.771-1.9,7.166,7.166,0,0,0-2.56-1.435Q137.3-45.18,137.3-48.685a4.712,4.712,0,0,1,1.708-3.751A6.73,6.73,0,0,1,143.55-53.9Zm11.477,2.115v3.333H158.3v2.235h-3.276v6.5q0,2.48,1.734,2.479a5.284,5.284,0,0,0,1.32-.138l.082,2.259a6.731,6.731,0,0,1-2.312.329,3.565,3.565,0,0,1-2.753-1.074,5.279,5.279,0,0,1-.991-3.609v-6.748h-1.952V-48.45h1.952V-50.9Zm35.455,3.036a4.985,4.985,0,0,1,4.379,2.147,7.243,7.243,0,0,1,1.179,4.213,6.977,6.977,0,0,1-.109,1.349h-8.917a3.885,3.885,0,0,0,1.294,3.031,4.415,4.415,0,0,0,2.917.936,9.857,9.857,0,0,0,3.608-.633l.466,2.065a11.149,11.149,0,0,1-4.485.827,6.5,6.5,0,0,1-4.888-1.832,6.767,6.767,0,0,1-1.775-4.916A7.672,7.672,0,0,1,185.8-46.6,5.7,5.7,0,0,1,190.482-48.748ZM182-48.722a4.77,4.77,0,0,1,.743.054v2.836a5.158,5.158,0,0,0-.937-.082,2.808,2.808,0,0,0-2.423,1.186,4.458,4.458,0,0,0-.743,2.644v7.024h-2.971l.028-9.171q0-2.314-.112-4.214h2.589l.109,2.561h.082a4.578,4.578,0,0,1,1.486-2.12A3.593,3.593,0,0,1,182-48.722Zm-15.468,2.176a2.98,2.98,0,0,0-2.726,1.6,6.14,6.14,0,0,0-.8,3.232,6.016,6.016,0,0,0,.8,3.175,3,3,0,0,0,2.7,1.6,2.974,2.974,0,0,0,2.668-1.629,6.046,6.046,0,0,0,.824-3.2,6.024,6.024,0,0,0-.8-3.176A2.936,2.936,0,0,0,166.536-46.546Zm-57.149.191a3.09,3.09,0,0,0-2,.73,3.384,3.384,0,0,0-1.17,1.915,3.9,3.9,0,0,0-.138.907v2.232a3.578,3.578,0,0,0,.9,2.466A2.966,2.966,0,0,0,109.3-37.1a3.042,3.042,0,0,0,2.614-1.295,5.7,5.7,0,0,0,.937-3.416,5.513,5.513,0,0,0-.881-3.222A3.043,3.043,0,0,0,109.387-46.355Zm15.388,0a3.094,3.094,0,0,0-2,.73,3.382,3.382,0,0,0-1.168,1.915,3.97,3.97,0,0,0-.138.907v2.232a3.589,3.589,0,0,0,.892,2.466,2.972,2.972,0,0,0,2.328,1.006,3.042,3.042,0,0,0,2.614-1.295,5.7,5.7,0,0,0,.937-3.416,5.514,5.514,0,0,0-.883-3.222A3.039,3.039,0,0,0,124.774-46.355ZM92.6-51.147q.688,2.754.935,3.5h0L95.1-42.8H90.119L91.66-47.65q.606-2.312.881-3.5h0Zm97.664,4.461a2.819,2.819,0,0,0-2.366,1.212,4.44,4.44,0,0,0-.88,2.313h6.191v-.216a3.957,3.957,0,0,0-.578-2.068A2.6,2.6,0,0,0,190.261-46.686Z" transform="translate(-84.86 53.898)"/></clipPath><clipPath id="e"><path class="a" d="M100.014-75.049a3,3,0,0,1,2.327.96,3.473,3.473,0,0,1,.838,2.408,3.608,3.608,0,0,1-.866,2.49,3.089,3.089,0,0,1-2.408,1,2.936,2.936,0,0,1-2.306-.961,3.5,3.5,0,0,1-.857-2.422,3.573,3.573,0,0,1,.885-2.5A3.07,3.07,0,0,1,100.014-75.049Zm31.157,0a3.008,3.008,0,0,1,2.328.96,3.473,3.473,0,0,1,.838,2.408,3.608,3.608,0,0,1-.866,2.49,3.091,3.091,0,0,1-2.408,1,2.932,2.932,0,0,1-2.306-.961,3.5,3.5,0,0,1-.857-2.422,3.573,3.573,0,0,1,.885-2.5A3.069,3.069,0,0,1,131.171-75.049Zm7.563,0q2.576,0,2.579,2.72v2.422a10.28,10.28,0,0,0,.095,1.568H140.1l-.109-.757h-.04a2.25,2.25,0,0,1-1.92.907,1.981,1.981,0,0,1-1.5-.6,1.868,1.868,0,0,1-.514-1.339,2.043,2.043,0,0,1,1.008-1.84,5.229,5.229,0,0,1,2.834-.622v-.123q0-1.3-1.365-1.3a3.055,3.055,0,0,0-1.713.487l-.3-.96A4.213,4.213,0,0,1,138.734-75.049Zm10.925-2.883v7.822q0,.96.052,1.772h-1.3l-.068-1.056h-.04a2.184,2.184,0,0,1-2.111,1.205,2.473,2.473,0,0,1-1.974-.933,3.637,3.637,0,0,1-.784-2.422,3.814,3.814,0,0,1,.852-2.585,2.618,2.618,0,0,1,2.029-.921,1.969,1.969,0,0,1,1.851.893h.028v-3.775Zm9.384,2.883a3,3,0,0,1,2.325.96,3.473,3.473,0,0,1,.838,2.408,3.609,3.609,0,0,1-.866,2.49,3.087,3.087,0,0,1-2.408,1,2.94,2.94,0,0,1-2.306-.961,3.5,3.5,0,0,1-.857-2.422,3.573,3.573,0,0,1,.885-2.5A3.071,3.071,0,0,1,159.043-75.049Zm19.242-1.5v1.636h1.609v1.1h-1.607v3.195c0,.812.286,1.218.852,1.218a2.571,2.571,0,0,0,.651-.068l.038,1.109a3.281,3.281,0,0,1-1.135.163,1.746,1.746,0,0,1-1.351-.527,2.58,2.58,0,0,1-.488-1.773V-73.82h-.961v-1.1h.961V-76.12Zm14.59,1.491a2.444,2.444,0,0,1,2.148,1.055,3.512,3.512,0,0,1,.586,2.069,3.537,3.537,0,0,1-.054.663h-4.382a1.918,1.918,0,0,0,.634,1.488,2.176,2.176,0,0,0,1.435.46,4.838,4.838,0,0,0,1.772-.311l.229,1.016a5.5,5.5,0,0,1-2.206.406,3.184,3.184,0,0,1-2.4-.9,3.316,3.316,0,0,1-.871-2.415,3.765,3.765,0,0,1,.811-2.476A2.794,2.794,0,0,1,192.876-75.061ZM90.034-77.528a5.423,5.423,0,0,1,3.611,1.042,4.212,4.212,0,0,1,1.365,3.37,4.581,4.581,0,0,1-1.475,3.708,5.865,5.865,0,0,1-3.88,1.149,17.979,17.979,0,0,1-2.137-.109v-8.971A15.763,15.763,0,0,1,90.034-77.528Zm29.385,2.475a2.1,2.1,0,0,1,1.529.6,2.9,2.9,0,0,1,.757,2.179v3.939h-1.461v-3.766q0-1.741-1.325-1.741a1.318,1.318,0,0,0-1.055.478,1.7,1.7,0,0,0-.406,1.127v3.9H116v-4.7q0-.866-.053-1.882h1.284l.068,1.028h.04a2.111,2.111,0,0,1,.757-.794A2.468,2.468,0,0,1,119.419-75.053Zm-13.309.138.743,3.126q.27,1.109.446,2.111h.027q.163-.824.542-2.1l.933-3.139h1.191l.894,3.072q.324,1.124.527,2.165h.04a20.7,20.7,0,0,1,.446-2.165l.8-3.072h1.434l-2.055,6.575h-1.338l-.852-2.856a21.387,21.387,0,0,1-.528-2.125h-.027a15.562,15.562,0,0,1-.528,2.125l-.9,2.856h-1.354l-1.934-6.576Zm19.624-3.017v9.593h-1.46v-9.593Zm42.043,2.879a2.1,2.1,0,0,1,1.528.6,2.89,2.89,0,0,1,.757,2.179v3.939H168.6v-3.766q0-1.741-1.326-1.741a1.314,1.314,0,0,0-1.054.478,1.692,1.692,0,0,0-.406,1.127v3.9h-1.462v-4.7q0-.866-.052-1.882h1.283l.068,1.028h.04a2.133,2.133,0,0,1,.757-.794A2.473,2.473,0,0,1,167.778-75.053Zm15.605-2.879v3.963h.028a2.208,2.208,0,0,1,1.974-1.081,2.035,2.035,0,0,1,1.5.6,3,3,0,0,1,.743,2.205v3.91h-1.462v-3.739q0-1.768-1.323-1.769a1.4,1.4,0,0,0-1.394,1.025,1.837,1.837,0,0,0-.068.526v3.955h-1.46v-9.592Zm-24.394,3.951a1.469,1.469,0,0,0-1.34.787,3.016,3.016,0,0,0-.392,1.588,2.976,2.976,0,0,0,.392,1.561,1.474,1.474,0,0,0,1.326.787,1.46,1.46,0,0,0,1.312-.8,2.969,2.969,0,0,0,.406-1.574,2.976,2.976,0,0,0-.392-1.561A1.445,1.445,0,0,0,158.989-73.982Zm-21.515,3.694a.991.991,0,0,0,.28.771,1.022,1.022,0,0,0,.714.257,1.475,1.475,0,0,0,.894-.3,1.246,1.246,0,0,0,.506-.778,1.238,1.238,0,0,0,.024-.257v-1.014Q137.474-71.655,137.474-70.288Zm-6.355-3.694a1.463,1.463,0,0,0-1.34.787,3.015,3.015,0,0,0-.392,1.588,2.975,2.975,0,0,0,.392,1.561,1.474,1.474,0,0,0,1.326.787,1.456,1.456,0,0,0,1.309-.8,2.944,2.944,0,0,0,.406-1.574,2.976,2.976,0,0,0-.392-1.561A1.441,1.441,0,0,0,131.119-73.982Zm-31.159,0a1.465,1.465,0,0,0-1.34.787,3.015,3.015,0,0,0-.392,1.588,2.975,2.975,0,0,0,.392,1.561,1.474,1.474,0,0,0,1.326.787,1.458,1.458,0,0,0,1.311-.8,2.957,2.957,0,0,0,.406-1.574,2.976,2.976,0,0,0-.392-1.561A1.443,1.443,0,0,0,99.961-73.982Zm46.69.068a1.5,1.5,0,0,0-1.285.65A2.787,2.787,0,0,0,144.9-71.6a2.6,2.6,0,0,0,.449,1.583,1.5,1.5,0,0,0,1.277.649,1.407,1.407,0,0,0,1.154-.541,1.8,1.8,0,0,0,.42-1.2v-1.1a2.152,2.152,0,0,0-.04-.46,1.665,1.665,0,0,0-.528-.886A1.436,1.436,0,0,0,146.65-73.913ZM90.155-76.377a6.18,6.18,0,0,0-1.177.095v6.82a7.71,7.71,0,0,0,.987.04,3.455,3.455,0,0,0,2.589-.933,3.739,3.739,0,0,0,.915-2.72,3.335,3.335,0,0,0-.845-2.45A3.329,3.329,0,0,0,90.155-76.377ZM192.77-74.049a1.387,1.387,0,0,0-1.163.6,2.214,2.214,0,0,0-.434,1.137h3.042a1.969,1.969,0,0,0-.283-1.123A1.276,1.276,0,0,0,192.77-74.049Z" transform="translate(-87.518 77.932)"/></clipPath><clipPath id="g"><path class="a" d="M36.618-67.662c1.409,0,4.092-1.946,6.857-1.655a8.348,8.348,0,0,1,6.575,3.555,8.151,8.151,0,0,0-3.882,6.839,7.879,7.879,0,0,0,4.809,7.247,18.043,18.043,0,0,1-2.5,5.094c-1.474,2.2-3.017,4.357-5.47,4.4-2.382.055-3.183-1.4-5.915-1.4-2.757,0-3.611,1.362-5.9,1.457-2.336.086-4.12-2.352-5.647-4.536C22.5-51.125,20.119-59.232,23.3-64.748a8.754,8.754,0,0,1,7.368-4.494C33.011-69.289,35.181-67.662,36.618-67.662ZM43.5-78a8.023,8.023,0,0,1-1.836,5.749,6.75,6.75,0,0,1-5.332,2.521,7.635,7.635,0,0,1,1.884-5.537A8.172,8.172,0,0,1,43.5-78Z" transform="translate(-21.792 78)"/></clipPath></defs><g transform="translate(0 95)"><g class="c" transform="translate(0 -95)"><g class="d" transform="translate(-31.886 -156.771)"><path d="M-5-100H187.643v69.75H-5Z" transform="translate(33.564 253.45)"/></g></g><g class="e" transform="translate(56.372 -67.696)"><g class="d" transform="translate(-88.257 -184.075)"><path class="f" d="M79.86-58.9H197.684v30.934H79.86Z" transform="translate(5.075 239.651)"/></g></g><g class="g" transform="translate(58.137 -83.662)"><g class="d" transform="translate(-90.022 -168.109)"><path class="f" d="M82.518-82.932H197.253v16.386H82.518Z" transform="translate(4.183 247.72)"/></g></g><g class="h" transform="translate(14.476 -83.707)"><g class="d" transform="translate(-46.362 -168.064)"><path class="f" d="M16.792-83H52.62v42.514H16.792Z" transform="translate(26.248 247.743)"/></g></g></g></svg>