<svg xmlns="http://www.w3.org/2000/svg" width="25" height="25" viewBox="0 0 25 25"><defs><style>.a{opacity:0.498;}.b{fill:#fff;}</style></defs><g class="a" transform="translate(-419.367 -293.5)"><path class="b" d="M431.867,295.35A10.65,10.65,0,1,1,421.217,306a10.662,10.662,0,0,1,10.65-10.65m0-1.85a12.5,12.5,0,1,0,12.5,12.5,12.5,12.5,0,0,0-12.5-12.5Z"/><path class="b" d="M431.867,299.443a2.047,2.047,0,0,1,2.045,2.045v1.3a2.045,2.045,0,1,1-4.09,0v-1.3a2.047,2.047,0,0,1,2.045-2.045m0-1.85a3.9,3.9,0,0,0-3.9,3.9v1.3a3.9,3.9,0,1,0,7.79,0v-1.3a3.9,3.9,0,0,0-3.895-3.9Z"/><path class="b" d="M431.867,309.938a10.324,10.324,0,0,1,7.679,3.426,10.614,10.614,0,0,1-15.357,0,10.32,10.32,0,0,1,7.678-3.426m0-1.85a12.159,12.159,0,0,0-10.056,5.315,12.468,12.468,0,0,0,20.112,0,12.159,12.159,0,0,0-10.056-5.315Z"/></g></svg>