<svg xmlns="http://www.w3.org/2000/svg" width="45.341" height="31.929" viewBox="0 0 45.341 31.929"><defs><style>.a{fill:#213448;}.b{fill:#f16522;}.c{fill:#e41b24;}.d{fill:#f89e1c;}</style></defs><g transform="translate(-123.75 -6173)"><rect class="a" width="45.341" height="31.929" rx="3" transform="translate(123.75 6173)"/><g transform="translate(132.336 6180.259)"><rect class="b" width="7.617" height="13.689" transform="translate(10.276 1.861)"/><path class="c" d="M1101.762,696.781a8.691,8.691,0,0,1,3.325-6.844,8.706,8.706,0,1,0,0,13.688,8.691,8.691,0,0,1-3.325-6.844" transform="translate(-1091.002 -688.075)"/><path class="d" d="M1205.282,696.78a8.7,8.7,0,0,1-14.085,6.844,8.707,8.707,0,0,0,0-13.689,8.706,8.706,0,0,1,14.085,6.844m-.831,5.395v-.28h.113v-.057h-.288v.057h.113v.28Zm.559,0v-.338h-.088l-.1.232-.1-.232h-.088v.338h.062v-.255l.095.22h.065l.1-.221v.256Z" transform="translate(-1177.111 -688.075)"/></g></g></svg>