<svg xmlns="http://www.w3.org/2000/svg" width="45.341" height="31.929" viewBox="0 0 45.341 31.929"><defs><style>.a{fill:#0066b2;}.b{fill:#fff;}.c{fill:#f9a533;}</style></defs><g transform="translate(-70 -6173)"><rect class="a" width="45.341" height="31.929" rx="3" transform="translate(70 6173)"/><g transform="translate(78.199 6184.733)"><g transform="translate(0 0)"><path class="b" d="M780.746,730.128h-2.361l1.476-9.071h2.362Z" transform="translate(-768.199 -720.894)"/><path class="b" d="M714.136,721.057l-2.252,6.239-.266-1.344h0l-.795-4.079a1.011,1.011,0,0,0-1.12-.817h-3.722l-.044.154a8.817,8.817,0,0,1,2.47,1.037l2.052,7.88h2.461l3.757-9.071Z" transform="translate(-705.938 -720.895)"/><path class="b" d="M858.277,730.128h2.168l-1.891-9.071h-1.9a1.085,1.085,0,0,0-1.09.676l-3.522,8.395h2.461l.492-1.347h3Zm-2.6-3.209,1.241-3.395.7,3.395Z" transform="translate(-831.504 -720.895)"/><path class="b" d="M812.255,722.246l.337-1.948a6.819,6.819,0,0,0-2.124-.4c-1.172,0-3.955.513-3.955,3,0,2.344,3.266,2.373,3.266,3.6s-2.93,1.011-3.9.234l-.352,2.036a6.616,6.616,0,0,0,2.666.512c1.611,0,4.043-.835,4.043-3.105,0-2.358-3.3-2.578-3.3-3.6S811.245,721.689,812.255,722.246Z" transform="translate(-791.531 -719.902)"/></g><path class="c" d="M711.618,725.953l-.795-4.079a1.011,1.011,0,0,0-1.12-.817h-3.722l-.044.154a9.152,9.152,0,0,1,3.505,1.76A7.074,7.074,0,0,1,711.618,725.953Z" transform="translate(-705.938 -720.895)"/></g></g></svg>