<svg xmlns="http://www.w3.org/2000/svg" width="20.176" height="20.175" viewBox="0 0 20.176 20.175"><defs><style>.a{opacity:0.498;}.b{fill:#fff;}</style></defs><g class="a" transform="translate(0 -0.501)"><path class="b" d="M15.973,92.542a.84.84,0,0,0-.841.841v6.725a.842.842,0,0,1-.841.841H2.522a.841.841,0,0,1-.841-.841V88.338a.841.841,0,0,1,.841-.841H9.247a.841.841,0,0,0,0-1.681H2.522A2.525,2.525,0,0,0,0,88.338v11.769a2.525,2.525,0,0,0,2.522,2.522H14.291a2.525,2.525,0,0,0,2.522-2.522V93.382A.84.84,0,0,0,15.973,92.542Zm0,0" transform="translate(0 -81.953)"/><path class="b" d="M182.526,74.913a.425.425,0,0,0-.115.214l-.594,2.973a.42.42,0,0,0,.413.5.4.4,0,0,0,.082-.008L185.283,78a.418.418,0,0,0,.215-.115l6.651-6.651-2.972-2.972Zm0,0" transform="translate(-174.644 -65.091)"/><path class="b" d="M395.58,1.116a2.1,2.1,0,0,0-2.972,0l-1.163,1.163,2.972,2.972,1.163-1.164a2.1,2.1,0,0,0,0-2.972Zm0,0" transform="translate(-376.02)"/></g></svg>