<svg xmlns="http://www.w3.org/2000/svg" width="18.557" height="17.005" viewBox="0 0 18.557 17.005"><defs><style>.a{fill:#2d3748;}</style></defs><g transform="translate(0 0)"><path class="a" d="M65.09,211.909H76.146a2.287,2.287,0,0,0,4.331,0H82.2a.729.729,0,0,0,0-1.458H80.477a2.287,2.287,0,0,0-4.331,0H65.09A.729.729,0,0,0,65.09,211.909Zm13.221-1.555a.826.826,0,0,1,0,1.653A.826.826,0,0,1,78.312,210.353Z" transform="translate(-64.367 -202.677)"/><path class="a" d="M82.2,338.953H74.255a2.287,2.287,0,0,0-4.331,0H65.09a.729.729,0,0,0,0,1.458h4.834a2.287,2.287,0,0,0,4.331,0H82.2A.729.729,0,0,0,82.2,338.953Zm-10.11,1.555a.826.826,0,0,1,0-1.653A.826.826,0,0,1,72.09,340.508Z" transform="translate(-64.367 -324.957)"/><path class="a" d="M82.2,81.949H71.144a2.287,2.287,0,0,0-4.331,0H65.09a.729.729,0,0,0,0,1.458h1.723a2.287,2.287,0,0,0,4.331,0H82.2A.729.729,0,0,0,82.2,81.949ZM68.979,83.5a.826.826,0,0,1,0-1.653A.826.826,0,0,1,68.979,83.5Z" transform="translate(-64.367 -80.397)"/></g></svg>
