<svg xmlns="http://www.w3.org/2000/svg" xmlns:xlink="http://www.w3.org/1999/xlink" width="186" height="63.107" viewBox="0 0 186 63.107"><defs><style>.a,.b{fill:none;}.a{clip-rule:evenodd;}.c{clip-path:url(#a);}.d{clip-path:url(#b);}.e{clip-path:url(#c);}.f{opacity:0;}.g{fill:url(#e);}.h{fill:url(#f);}.i{clip-path:url(#g);}.j{fill:url(#i);}.k{fill:url(#j);}.l{clip-path:url(#k);}.m{fill:url(#m);}.n{fill:url(#n);}.o{clip-path:url(#o);}.p{fill:url(#q);}.q{fill:url(#r);}.r{clip-path:url(#s);}.s{fill:#fff;}.t{clip-path:url(#u);}</style><clipPath id="a"><path class="a" d="M7.977-95A7.979,7.979,0,0,0,0-87.023v47.154a7.976,7.976,0,0,0,7.977,7.977H178.023A7.979,7.979,0,0,0,186-39.869V-87.023A7.976,7.976,0,0,0,178.023-95Z" transform="translate(0 95)"/></clipPath><clipPath id="b"><path class="b" d="M-400,67.571H131.429V-331H-400Z" transform="translate(400 331)"/></clipPath><clipPath id="c"><path class="a" d="M22.239-56.242a1.429,1.429,0,0,0-.863,1.51l0,25.472a1.44,1.44,0,0,0,.838,1.5L36.351-42.011,22.239-56.242" transform="translate(-21.376 56.242)"/></clipPath><linearGradient id="e" x1="0.076" y1="0.408" x2="0.076" y2="11.187" gradientUnits="objectBoundingBox"><stop offset="0"/><stop offset="0" stop-color="#1e79af"/><stop offset="0.1" stop-color="#2586b3"/><stop offset="0.2" stop-color="#2c94b6"/><stop offset="0.3" stop-color="#33a1ba"/><stop offset="0.4" stop-color="#3aafbd"/><stop offset="0.5" stop-color="#41bcc1"/><stop offset="0.6" stop-color="#47c9c5"/><stop offset="0.7" stop-color="#4ed7c8"/><stop offset="0.8" stop-color="#55e4cc"/><stop offset="0.9" stop-color="#5cf2cf"/><stop offset="1" stop-color="#63ffd3"/><stop offset="1"/></linearGradient><linearGradient id="f" x1="0.117" y1="0.408" x2="0.117" y2="0.859" gradientUnits="objectBoundingBox"><stop offset="0" stop-color="#1e79af"/><stop offset="0.1" stop-color="#2586b3"/><stop offset="0.2" stop-color="#2c94b6"/><stop offset="0.3" stop-color="#33a1ba"/><stop offset="0.4" stop-color="#3aafbd"/><stop offset="0.5" stop-color="#41bcc1"/><stop offset="0.6" stop-color="#47c9c5"/><stop offset="0.7" stop-color="#4ed7c8"/><stop offset="0.8" stop-color="#55e4cc"/><stop offset="0.9" stop-color="#5cf2cf"/><stop offset="1" stop-color="#63ffd3"/></linearGradient><clipPath id="g"><path class="a" d="M22.643-20.565a1.651,1.651,0,0,0,1.327-.21l17.248-9.565-4.441-4.478L22.643-20.565" transform="translate(-22.643 34.819)"/></clipPath><linearGradient id="i" x1="0.081" y1="0.633" x2="0.081" y2="11.412" gradientUnits="objectBoundingBox"><stop offset="0"/><stop offset="0" stop-color="#dc4057"/><stop offset="0.1" stop-color="#d63f61"/><stop offset="0.2" stop-color="#d03e6b"/><stop offset="0.3" stop-color="#c93d75"/><stop offset="0.4" stop-color="#c33c7f"/><stop offset="0.5" stop-color="#bd3b89"/><stop offset="0.6" stop-color="#b73a93"/><stop offset="0.7" stop-color="#b1399d"/><stop offset="0.8" stop-color="#aa38a7"/><stop offset="0.9" stop-color="#a437b1"/><stop offset="1" stop-color="#9e36bb"/><stop offset="1"/></linearGradient><linearGradient id="j" x1="0.165" y1="0.666" x2="0.086" y2="0.853" gradientUnits="objectBoundingBox"><stop offset="0" stop-color="#dc4057"/><stop offset="0.1" stop-color="#d63f61"/><stop offset="0.2" stop-color="#d03e6b"/><stop offset="0.3" stop-color="#c93d75"/><stop offset="0.4" stop-color="#c33c7f"/><stop offset="0.5" stop-color="#bd3b89"/><stop offset="0.6" stop-color="#b73a93"/><stop offset="0.7" stop-color="#b1399d"/><stop offset="0.8" stop-color="#aa38a7"/><stop offset="0.9" stop-color="#a437b1"/><stop offset="1" stop-color="#9e36bb"/></linearGradient><clipPath id="k"><path class="a" d="M48.363-32.6l5.881-3.261c1.193-.664,1.193-1.743,0-2.405l-5.9-3.273-4.421,4.459L48.363-32.6" transform="translate(-43.919 41.534)"/></clipPath><linearGradient id="m" x1="0.157" y1="0.563" x2="0.157" y2="11.342" gradientUnits="objectBoundingBox"><stop offset="0"/><stop offset="0" stop-color="#ff9676"/><stop offset="0.1" stop-color="#ff9c76"/><stop offset="0.2" stop-color="#ffa276"/><stop offset="0.3" stop-color="#ffa775"/><stop offset="0.4" stop-color="#ffad75"/><stop offset="0.5" stop-color="#ffb375"/><stop offset="0.6" stop-color="#ffb975"/><stop offset="0.7" stop-color="#ffbf75"/><stop offset="0.8" stop-color="#ffc474"/><stop offset="0.9" stop-color="#ffca74"/><stop offset="1" stop-color="#ffd074"/><stop offset="1"/></linearGradient><linearGradient id="n" x1="0.187" y1="0.563" x2="0.187" y2="0.701" gradientUnits="objectBoundingBox"><stop offset="0" stop-color="#ff9676"/><stop offset="0.1" stop-color="#ff9c76"/><stop offset="0.2" stop-color="#ffa276"/><stop offset="0.3" stop-color="#ffa775"/><stop offset="0.4" stop-color="#ffad75"/><stop offset="0.5" stop-color="#ffb375"/><stop offset="0.6" stop-color="#ffb975"/><stop offset="0.7" stop-color="#ffbf75"/><stop offset="0.8" stop-color="#ffc474"/><stop offset="0.9" stop-color="#ffca74"/><stop offset="1" stop-color="#ffd074"/></linearGradient><clipPath id="o"><path class="a" d="M41.209-46.5,23.981-56.052a1.675,1.675,0,0,0-1.3-.217L36.788-42.041,41.209-46.5" transform="translate(-22.677 56.324)"/></clipPath><linearGradient id="q" x1="0.081" y1="0.407" x2="0.081" y2="11.186" gradientUnits="objectBoundingBox"><stop offset="0"/><stop offset="0" stop-color="#51c6ad"/><stop offset="0.1" stop-color="#5eccac"/><stop offset="0.2" stop-color="#6bd1ab"/><stop offset="0.3" stop-color="#79d7a9"/><stop offset="0.4" stop-color="#86dda8"/><stop offset="0.5" stop-color="#93e3a7"/><stop offset="0.6" stop-color="#a0e8a6"/><stop offset="0.7" stop-color="#adeea5"/><stop offset="0.8" stop-color="#bbf4a3"/><stop offset="0.9" stop-color="#c8f9a2"/><stop offset="1" stop-color="#d5ffa1"/><stop offset="1"/></linearGradient><linearGradient id="r" x1="0.098" y1="0.407" x2="0.181" y2="0.633" gradientUnits="objectBoundingBox"><stop offset="0" stop-color="#51c6ad"/><stop offset="0.1" stop-color="#5eccac"/><stop offset="0.2" stop-color="#6bd1ab"/><stop offset="0.3" stop-color="#79d7a9"/><stop offset="0.4" stop-color="#86dda8"/><stop offset="0.5" stop-color="#93e3a7"/><stop offset="0.6" stop-color="#a0e8a6"/><stop offset="0.7" stop-color="#adeea5"/><stop offset="0.8" stop-color="#bbf4a3"/><stop offset="0.9" stop-color="#c8f9a2"/><stop offset="1" stop-color="#d5ffa1"/></linearGradient><clipPath id="s"><path class="a" d="M131.359-46.787l-1.746.993h-1.692a4.631,4.631,0,0,1,1.931,3.707c0,2.035-1.138,2.994-2.285,3.9a1.952,1.952,0,0,0-.764,1.344,1.514,1.514,0,0,0,.708,1.184l.984.766c1.2,1.019,2.287,1.952,2.287,3.85,0,2.584-2.48,5.191-7.167,5.191-3.948,0-5.857-1.9-5.857-3.929a3.951,3.951,0,0,1,2.1-3.351,11.653,11.653,0,0,1,5.2-1.262,2.909,2.909,0,0,1-.82-1.872,2.5,2.5,0,0,1,.273-1.071c-.3.028-.6.058-.871.058a4.327,4.327,0,0,1-4.523-4.316,4.951,4.951,0,0,1,1.746-3.682,7.393,7.393,0,0,1,4.878-1.512Zm-5.871,13.162h-.125a10.727,10.727,0,0,0-2.859.44,3.082,3.082,0,0,0-2.346,2.831c0,1.948,1.882,3.352,4.794,3.352,2.616,0,4-1.264,4-2.967,0-1.4-.9-2.141-2.966-3.627A3.52,3.52,0,0,0,125.487-33.625Zm60.2-13.252,4.657,11.264,4.612-11.264h1.559L189.9-31.151a3.389,3.389,0,0,1-3.253,2.4,5.408,5.408,0,0,1-1.377-.186l.237-1.282a3.219,3.219,0,0,0,1.117.214c.843,0,1.43-.348,1.957-1.576l1.005-2.3-5.429-13ZM161.058-47.2c3.418,0,5.72,2.614,5.72,6.753,0,4.111-2.3,6.78-5.72,6.78a5.453,5.453,0,0,1-4.444-2.4v7h-1.378V-46.877h1.378v2.028A5.466,5.466,0,0,1,161.058-47.2Zm-80.188-5.41a14.811,14.811,0,0,1,3.912.537,9.8,9.8,0,0,1,3.369,1.6l-2.122,2.032-.895.2.638-1.025a7.262,7.262,0,0,0-5.466-2.422c-4.03,0-7.07,3.089-7.07,7.6,0,4.844,3.471,9.4,9.038,9.4a7.552,7.552,0,0,0,3.243-.641v-4.153l-3.857.209L83.7-40.374h5.413l-.662.642a.592.592,0,0,0-.253.41c-.027.234-.052.98-.052,1.243v3.14l-3.653.844a26.491,26.491,0,0,1-4.216.442c-7.045,0-9.73-5.23-9.73-9.323C70.551-47.974,74.355-52.609,80.869-52.609ZM177.7-47.2a5.684,5.684,0,0,1,3.635,1.093,3.74,3.74,0,0,1,1.375,3.123v6.359a10.177,10.177,0,0,0,.078,1.328,8.491,8.491,0,0,0,.275,1.277h-1.588c-.092-.447-.161-.841-.212-1.17a7.915,7.915,0,0,1-.066-1,5.472,5.472,0,0,1-2,1.74,5.46,5.46,0,0,1-2.784.688,4.483,4.483,0,0,1-3.129-1.009,3.53,3.53,0,0,1-1.114-2.746,3.255,3.255,0,0,1,1.617-2.811,7.392,7.392,0,0,1,4.192-1.079H181.2v-1.6a2.7,2.7,0,0,0-.934-2.174,3.973,3.973,0,0,0-2.639-.793,4.152,4.152,0,0,0-2.524.717,2.189,2.189,0,0,0-.957,1.805h-1.411l-.029-.069a2.994,2.994,0,0,1,1.33-2.566A5.757,5.757,0,0,1,177.7-47.2Zm-33.95.063a5.269,5.269,0,0,1,2.806.769,4.6,4.6,0,0,1,1.909,2.72l-6.405,2.61-2.1.164c.679,3.493,3.022,5.525,5.612,5.525a6.687,6.687,0,0,0,3.134-.865s.177-.093.051.034l-1.3,1.24c-.3.167-.6.361-.9.5a6.264,6.264,0,0,1-2.643.519A5.8,5.8,0,0,1,140.287-35a7.125,7.125,0,0,1-2.779-5.792A6.205,6.205,0,0,1,143.752-47.142Zm-46.813,0a6.4,6.4,0,0,1,6.509,6.483,6.68,6.68,0,0,1-6.92,6.674,6.45,6.45,0,0,1-6.645-6.48A6.778,6.778,0,0,1,96.939-47.142Zm14.5,0a6.4,6.4,0,0,1,6.514,6.483,6.683,6.683,0,0,1-6.923,6.674,6.453,6.453,0,0,1-6.648-6.48A6.777,6.777,0,0,1,111.437-47.142Zm58.6-4.652v17.808H168.66V-51.794Zm-33.458-1.942a1.9,1.9,0,0,0-1.205,1.755L135.367-36.4c0,1.067.189,1.234,1.084,1.317.467.055.932.08,1.392.135l-1.008.6h-4.8c.63-.824.738-.906.738-1.455v-.613l-.01-16.337h-2.12l2.041-.992ZM96.23-46.29a3.766,3.766,0,0,0-2.451.932A4.171,4.171,0,0,0,92.524-42c0,2.715,1.336,7.192,4.633,7.192a3.476,3.476,0,0,0,2.778-1.4,5,5,0,0,0,.817-3.047C100.753-41.674,99.606-46.29,96.23-46.29Zm14.5,0a3.782,3.782,0,0,0-2.456.932A4.175,4.175,0,0,0,107.022-42c0,2.715,1.331,7.192,4.633,7.192a3.475,3.475,0,0,0,2.781-1.4,4.967,4.967,0,0,0,.819-3.047C115.254-41.674,114.111-46.29,110.732-46.29Zm50.094.345a5.464,5.464,0,0,0-4.211,2.634v5.7a5.512,5.512,0,0,0,4.211,2.688c2.859,0,4.472-2.4,4.472-5.524S163.684-45.944,160.825-45.944ZM181.2-40.313h-3.23a5.263,5.263,0,0,0-3.059.831,2.41,2.41,0,0,0-1.213,2,2.225,2.225,0,0,0,.772,1.768,3.1,3.1,0,0,0,2.117.673,5.15,5.15,0,0,0,2.872-.786,3.965,3.965,0,0,0,1.74-2.014Zm-57.173-5.565a2.53,2.53,0,0,0-1.906.91,3.184,3.184,0,0,0-.6,2.029c0,1.84,1.064,4.892,3.4,4.892a2.775,2.775,0,0,0,1.849-.769,2.787,2.787,0,0,0,.685-2.008C127.458-42.8,126.29-45.878,124.025-45.878Zm18.961-.357c-1.088,0-3.132.855-3.132,3.824,0,.463.055.957.082,1.45l4.96-2.171c.52-.191.79-.355.79-.738A2.72,2.72,0,0,0,142.985-46.236Z" transform="translate(-70.551 53.736)"/></clipPath><clipPath id="u"><path class="a" d="M75.007-79.757a4.112,4.112,0,0,1,3.53,1.818l-1.251.725a2.833,2.833,0,0,0-2.278-1.172,3,3,0,0,0-3.03,3.174,3.017,3.017,0,0,0,3.03,3.174,3.152,3.152,0,0,0,2.081-.79v-1.357H74.454v-1.357h4.162v3.28a4.745,4.745,0,0,1-3.609,1.607,4.434,4.434,0,0,1-4.61-4.557A4.417,4.417,0,0,1,75.007-79.757Zm44.852,0a4.366,4.366,0,0,1,4.491,4.544,4.366,4.366,0,0,1-4.491,4.543,4.358,4.358,0,0,1-4.492-4.543A4.358,4.358,0,0,1,119.859-79.757Zm-33.319.145v1.358H82.062v2.264h4.386v1.357H82.062v2.449H86.54v1.357H80.521v-8.785Zm8.465,0v1.358h-2.66v7.427H90.8v-7.427h-2.66v-1.358Zm6.9,0v8.785h-1.54v-8.785Zm8.493,0v1.358h-2.66v7.427h-1.541v-7.427h-2.66v-1.358Zm17.336,0,4.491,6.085v-6.085h1.541v8.785h-1.488L127.69-77.11v6.282h-1.54v-8.785Zm-7.871,1.226a2.909,2.909,0,0,0-2.911,3.174,2.917,2.917,0,0,0,2.911,3.174,2.925,2.925,0,0,0,2.91-3.174A2.917,2.917,0,0,0,119.859-78.387Z" transform="translate(-70.397 79.757)"/></clipPath></defs><g transform="translate(0 95)"><g class="c" transform="translate(0 -95)"><g class="d" transform="translate(-265.714 -156.771)"><path d="M-5-100H187.643v69.75H-5Z" transform="translate(267.393 253.45)"/></g></g><g class="e" transform="translate(14.2 -69.253)"><g class="d" transform="translate(-279.914 -182.518)"><g class="f" transform="translate(265.714 156.771)"><path class="g" d="M-21.376-38.758h186V24.349h-186Z" transform="translate(21.376 38.758)"/></g><g transform="translate(265.714 156.771)"><path class="h" d="M-21.376-38.758h186V24.349h-186Z" transform="translate(21.376 38.758)"/></g></g></g><g class="i" transform="translate(15.041 -55.022)"><g class="d" transform="translate(-280.756 -196.749)"><g class="f" transform="translate(265.714 156.771)"><path class="j" d="M-22.643-60.181h186V2.926h-186Z" transform="translate(22.643 60.181)"/></g><g transform="translate(265.714 156.771)"><path class="k" d="M-22.643-60.181h186V2.926h-186Z" transform="translate(22.643 60.181)"/></g></g></g><g class="l" transform="translate(29.175 -59.484)"><g class="d" transform="translate(-294.889 -192.288)"><g class="f" transform="translate(265.714 156.771)"><path class="m" d="M-43.919-53.466h186V9.642h-186Z" transform="translate(43.919 53.466)"/></g><g transform="translate(265.714 156.771)"><path class="n" d="M-43.919-53.466h186V9.642h-186Z" transform="translate(43.919 53.466)"/></g></g></g><g class="o" transform="translate(15.064 -69.308)"><g class="d" transform="translate(-280.778 -182.463)"><g class="f" transform="translate(265.714 156.771)"><path class="p" d="M-22.677-38.676h186V24.431h-186Z" transform="translate(22.677 38.676)"/></g><g transform="translate(265.714 156.771)"><path class="q" d="M-22.677-38.676h186V24.431h-186Z" transform="translate(22.677 38.676)"/></g></g></g><g class="r" transform="translate(46.866 -67.589)"><g class="d" transform="translate(-312.581 -184.182)"><path class="s" d="M65.551-58.736H198.161v34.529H65.551Z" transform="translate(243.708 239.597)"/></g></g><g class="t" transform="translate(46.764 -84.874)"><g class="d" transform="translate(-312.478 -166.897)"><path class="s" d="M65.4-84.757H135.4v15.744H65.4Z" transform="translate(243.76 248.333)"/></g></g></g></svg>