<svg xmlns="http://www.w3.org/2000/svg" width="24" height="24" viewBox="0 0 24 24"><defs><style>.a{fill:#fff;}</style></defs><path class="a" d="M12,0A12,12,0,1,0,24,12,11.993,11.993,0,0,0,12,0Zm0,22.125A10.125,10.125,0,1,1,22.125,12,10.119,10.119,0,0,1,12,22.125Z"/><g transform="translate(11.16 6.349)"><path class="a" d="M236.84,128.877a.84.84,0,0,0-.84.84v5.413a.84.84,0,1,0,1.681,0v-5.413A.84.84,0,0,0,236.84,128.877Z" transform="translate(-236 -128.877)"/></g><g transform="translate(10.865 15.285)"><circle class="a" cx="1.135" cy="1.135" r="1.135"/></g></svg>