<svg xmlns="http://www.w3.org/2000/svg" width="37.244" height="51.819" viewBox="0 0 37.244 51.819"><defs><style>.a{fill:#87b1de;}</style></defs><g transform="translate(-130.951 -4.491)"><path class="a" d="M166.576,4.491H137.631a6.691,6.691,0,0,0-6.68,6.68V49.022a7.286,7.286,0,0,0,7.286,7.287H168.2V53.07H138.237a4.049,4.049,0,0,1,0-8.1H168.2V4.491Zm-1.619,37.244H141.476V7.729h23.481Zm-30.767,1.229V11.17a3.446,3.446,0,0,1,3.442-3.441h.606V41.735A7.254,7.254,0,0,0,134.189,42.964Z"/><path class="a" d="M166.912,57.083H139.524a1.62,1.62,0,0,0,0,3.238h29.958V57.083h-2.57Z" transform="translate(-1.287 -9.68)"/></g></svg>