<svg xmlns="http://www.w3.org/2000/svg" width="394.397" height="114.293" viewBox="0 0 394.397 114.293"><defs><style>.a,.b,.c,.f,.h{fill:none;}.a,.b{stroke:#f06667;}.a,.b,.c,.f{stroke-width:3px;}.b{stroke-linecap:round;}.c{stroke:#f6ee6e;}.d{fill:#f6ee6e;}.e{fill:#87b1de;}.f{stroke:#87b1de;}.g{stroke:none;}</style></defs><g transform="translate(-485.999 -2728.998)"><g class="a" transform="translate(615.379 2728.998)"><rect class="g" width="165.184" height="102.315" rx="4"/><rect class="h" x="1.5" y="1.5" width="162.184" height="99.315" rx="2.5"/></g><line class="b" x2="192.686" transform="translate(601.203 2841.791)"/><g class="c" transform="translate(555.031 2756.734) rotate(90)"><rect class="g" width="85.057" height="69.032" rx="4"/><rect class="h" x="1.5" y="1.5" width="82.057" height="66.032" rx="2.5"/></g><path class="d" d="M3,0A3,3,0,1,1,0,3,3,3,0,0,1,3,0Z" transform="translate(518.379 2823.645)"/><path class="e" d="M3,0A3,3,0,1,1,0,3,3,3,0,0,1,3,0Z" transform="translate(857.379 2824.645)"/><g class="f" transform="translate(880.396 2778.932) rotate(90)"><rect class="g" width="62.859" height="40.109" rx="4"/><rect class="h" x="1.5" y="1.5" width="59.859" height="37.109" rx="2.5"/></g></g></svg>