<svg xmlns="http://www.w3.org/2000/svg" width="176.317" height="37.359" viewBox="0 0 176.317 37.359"><defs><style>.a{fill:#f3c138;}.b{fill:#ef922f;}.c{fill:#f0af35;}.d{fill:#cd1b81;}.e{fill:#e65069;}.f{fill:#ec8141;}.g{fill:#f3ea45;}.h{fill:#e8685c;}.i{fill:#e31d74;}.j{fill:#fff;}</style></defs><g transform="translate(-61.744 -60.588)"><path class="a" d="M123.11,61.691l-6.8,20.932h5.2l1.414-4.471h6.328l1.417,4.471h5.76l-7.242-20.932Zm.723,12.494,2.173-7.457h.124l2.111,7.457Z" transform="translate(-35.913 -0.726)"/><path class="b" d="M240.52,61.691h-5.448V82.623h11.5l2.285-4.753H240.52Z" transform="translate(-114.074 -0.726)"/><path class="c" d="M192.992,77.248c-.859-1.946-.707-3.472-1.852-4.287l-.014-.028-.012,0a5.915,5.915,0,0,0,3.2-5.3c0-4.469-3.246-5.947-8.088-5.947h-7.5V82.623h5.42V74.785h1.286c1.483,0,1.714,1.417,2.171,2.4l1.024,2.54a4.86,4.86,0,0,0,5.515,3.237l2.216-4.613a3.059,3.059,0,0,1-.552.125A2.479,2.479,0,0,1,192.992,77.248Zm-6.8-6.617h-2.043V65.909h1.634c1.954,0,2.99.442,2.99,2.173A2.3,2.3,0,0,1,186.193,70.632Z" transform="translate(-76.994 -0.726)"/><path class="d" d="M485.825,62.11V73.087h-.067l-6.89-11.4h-5.008V82.623h5.352V71.008h.1l7.114,11.616H491.2V62.11Z" transform="translate(-271.229 -0.726)"/><path class="e" d="M398.751,75.543a2.64,2.64,0,0,1-2.8,2.957c-1.731,0-2.962-.723-2.962-3.115V61.691h-5.41V75.7c0,5.1,2.8,7.3,8.244,7.3,4.943,0,8.344-2.58,8.344-6.828V61.691h-5.417Z" transform="translate(-214.446 -0.726)"/><path class="f" d="M285.922,74.313h4.844l2.271-4.72h-7.114V66.412H294.2v-4.72H280.51V82.623h13.91l0-4.72h-8.5Z" transform="translate(-143.979 -0.726)"/><path class="g" d="M73.767,69.751H67.157v-8.06H61.744V82.623h5.413V74.505h6.609v8.118h5.445V61.691H73.767Z" transform="translate(0 -0.726)"/><path class="h" d="M344.376,83.5c-2.333-.159-3.968-1.387-5.732-2.077,3.275-1.416,5.287-4.723,5.287-9.947,0-8-4.246-10.892-9.1-10.892-4.558,0-9.727,2.833-9.727,10.892,0,6.357,2.707,9.947,7.429,10.637l-1.515,3.157a3.015,3.015,0,0,1,1.115-.5,7.522,7.522,0,0,1,2.041-.1c3.647.1,5.665,2.894,10.135,3.05a13.908,13.908,0,0,0,1.664,0l2.209-4.591a7.5,7.5,0,0,1-1.609.5A5,5,0,0,1,344.376,83.5Zm-9.73-5.448c-3.305,0-3.928-3.774-3.928-6.67,0-3.086,1-6.233,3.8-6.233,3.146,0,3.839,3.8,3.839,6.421C338.36,74.755,337.514,78.056,334.645,78.056Z" transform="translate(-173.33)"/><rect class="i" width="5.417" height="20.932" transform="translate(193.452 60.965)"/><path class="j" d="M446.968,134.705h4.82c2.824,0,4.531,1.673,4.531,4.091v.034c0,2.739-2.13,4.16-4.784,4.16h-1.963v3.552h-2.6Zm5.013,5.969a1.833,1.833,0,0,0,2.063-1.793v-.034c0-1.166-.812-1.793-2.113-1.793h-2.358v3.619Z" transform="translate(-253.531 -48.779)"/><path class="j" d="M481.58,134.705h2.6v9.469h6.284l-1.123,2.368H481.58Z" transform="translate(-276.31 -48.779)"/><path class="j" d="M513.668,141.469v-6.764h2.6v6.7c0,1.929.964,2.926,2.554,2.926s2.553-.964,2.553-2.841v-6.78h2.6v6.679c0,3.585-2.012,5.343-5.192,5.343S513.668,144.951,513.668,141.469Z" transform="translate(-297.429 -48.779)"/><path class="j" d="M550.1,144.488l1.046-2.246a6.664,6.664,0,0,0,4.025,1.841c1.066,0,1.709-.423,1.709-1.116v-.034c0-.66-.407-1-2.385-1.5-2.384-.61-3.923-1.269-3.923-3.618v-.035c0-2.148,1.725-3.568,4.144-3.568a6.848,6.848,0,0,1,4.395,1.505l-1.021,2.178a7,7,0,0,0-3.409-1.383c-1,0-1.522.457-1.522,1.031v.035c0,.778.509,1.031,2.553,1.555,2.4.626,3.754,1.489,3.754,3.551v.035c0,2.349-1.793,3.669-4.345,3.669A7.523,7.523,0,0,1,550.1,144.488Z" transform="translate(-321.405 -48.452)"/></g></svg>