<svg xmlns="http://www.w3.org/2000/svg" width="119.127" height="50.103" viewBox="0 0 119.127 50.103"><defs><style>.a{fill:#fff;}.b{fill:#babcbf;}.c{fill:#1a1818;}.d{fill:#96999c;}.e{fill:#ffb300;}</style></defs><g transform="translate(-148.435 -311.202)"><path class="a" d="M175.577,337.3a18.53,18.53,0,0,0,0,37.059h77.232a18.53,18.53,0,0,0,0-37.059Z" transform="translate(-5.353 -16.222)"/><path class="b" d="M250.217,373.348H172.985a20.108,20.108,0,0,1,0-40.216h77.232a20.108,20.108,0,0,1,0,40.216M172.985,334.71a18.53,18.53,0,0,0,0,37.059h77.232a18.53,18.53,0,0,0,0-37.059Z" transform="translate(-2.762 -13.631)"/><path class="c" d="M376.685,356.531a5.429,5.429,0,1,0,5.43,5.431,5.43,5.43,0,0,0-5.43-5.431m0,8.216a2.786,2.786,0,1,1,2.787-2.785,2.786,2.786,0,0,1-2.787,2.785" transform="translate(-138.494 -28.174)"/><path class="c" d="M310.885,356.531a5.429,5.429,0,1,0,5.432,5.431,5.43,5.43,0,0,0-5.432-5.431m0,8.216a2.786,2.786,0,1,1,2.787-2.785,2.785,2.785,0,0,1-2.787,2.785" transform="translate(-97.596 -28.174)"/><path class="c" d="M349.067,360.435a5.41,5.41,0,0,1-1.068.2c-.928,0-1.13-.32-1.13-1.208v-5.016h2.22v-2.1h-2.22v-2.963h-2.5l-.525,2.963h-1.74v0h-.142a3.582,3.582,0,0,0-3.185,2.235l-.869-2.236H336.12v10.419h3.061V358.2c0-2.285,1.35-3.744,2.95-3.789h1.675v5.179c0,2.438,1.25,3.345,3.285,3.345a7.333,7.333,0,0,0,2.338-.382Z" transform="translate(-116.655 -23.71)"/><path class="c" d="M404.862,360.474V367.6h-2.976V357.178h1.806l.605,1.591" transform="translate(-157.532 -28.576)"/><path class="c" d="M408.223,358.38a4.818,4.818,0,0,1,3.593-1.845c2.48,0,3.5,1.977,3.5,3.81V367.2h-3.065v-6.764a1.417,1.417,0,0,0-1.55-1.378,2.53,2.53,0,0,0-1.895,1.017" transform="translate(-161.471 -28.177)"/><path class="c" d="M273.9,347.213h3.411L282,356.136v-8.922h2.826v14.192h-3.091l-5-9.811v9.811H273.9Z" transform="translate(-77.984 -22.383)"/><path class="d" d="M447.481,333.133v.508h-.743v2.5h-.58v-2.5h-.73v-.508Z" transform="translate(-184.595 -13.631)"/><path class="d" d="M451.953,336.141v-3.008h.785l.521,1.97.53-1.97h.793v3.008H454.1v-2.353h-.014l-.608,2.353h-.425l-.613-2.353h-.013v2.353Z" transform="translate(-188.651 -13.631)"/><path class="d" d="M271.652,404.374l.708-1.1a4.217,4.217,0,0,0,2.491.82c1.023,0,1.655-.464,1.655-1.269,0-.926-.8-1.171-2.11-1.628-1.176-.413-2.333-1.007-2.333-2.673,0-1.562,1.231-2.412,2.888-2.412a4.9,4.9,0,0,1,2.566.6l-.567,1.172a4.225,4.225,0,0,0-1.973-.478c-.923,0-1.476.348-1.476,1.08,0,.86.641,1.078,1.848,1.475,1.258.408,2.643.99,2.643,2.836,0,1.562-1.116,2.592-3.12,2.592a5.227,5.227,0,0,1-3.221-1.015" transform="translate(-76.585 -52.775)"/><path class="d" d="M295.506,396.486h5.363v1.247h-3.837v2.461h3.03v1.22h-3.03v2.845h4.07V405.5h-5.6Z" transform="translate(-91.412 -53.008)"/><path class="d" d="M316.062,400.773c0-2.631,1.26-4.656,3.775-4.656a3.3,3.3,0,0,1,2.643,1.087l-.89,1.03a2.247,2.247,0,0,0-1.728-.785c-1.476,0-2.158,1.208-2.158,3.44,0,2.095.719,3.156,2.171,3.156a2.52,2.52,0,0,0,1.87-.95l.9,1a3.385,3.385,0,0,1-2.782,1.3c-2.593,0-3.8-1.977-3.8-4.619" transform="translate(-104.188 -52.779)"/><path class="d" d="M340.021,402.052v-5.566h1.538V402.3c0,1.24.307,2.051,1.615,2.051s1.618-.811,1.618-2.051v-5.815h1.553v5.566c0,2.234-.86,3.57-3.183,3.57-2.285,0-3.142-1.335-3.142-3.57" transform="translate(-119.08 -53.008)"/><path class="d" d="M371.168,405.506H369.5l-1.731-3.825h-1.425v3.825h-1.527v-9.019h2.942c1.821,0,3.243.653,3.243,2.629a2.348,2.348,0,0,1-1.708,2.347Zm-3.465-5c1.143,0,1.731-.372,1.731-1.413,0-1-.6-1.358-1.642-1.358h-1.449V400.5Z" transform="translate(-134.492 -53.009)"/><path class="d" d="M388.5,396.486h5.363v1.247h-3.838v2.461h3.026v1.22h-3.026v2.845h4.068V405.5H388.5Z" transform="translate(-149.212 -53.008)"/><path class="d" d="M410.09,396.486h2.251c2.94,0,4.353,1.591,4.353,4.476,0,2.939-1.438,4.543-4.275,4.543H410.09Zm2.163,7.773c2.105,0,2.825-.971,2.825-3.3,0-2.04-.565-3.232-2.635-3.232h-.82v6.528Z" transform="translate(-162.631 -53.008)"/><path class="e" d="M170.131,372.329a21.7,21.7,0,1,1,21.694-21.7,21.722,21.722,0,0,1-21.694,21.7m0-36.528a14.83,14.83,0,1,0,10.487,4.343,14.748,14.748,0,0,0-10.487-4.343" transform="translate(0 -11.024)"/><rect class="e" width="1.691" height="1.692" transform="translate(193.764 314.573)"/><rect class="e" width="1.691" height="1.695" transform="translate(193.764 311.202)"/><rect class="e" width="1.58" height="1.652" transform="translate(189.004 316.253)"/><rect class="c" width="1.593" height="1.58" transform="translate(185.872 319.496)"/><rect class="c" width="1.772" height="1.591" transform="translate(190.583 317.905)"/><rect class="c" width="1.586" height="1.513" transform="translate(184.286 317.983)"/><rect class="c" width="1.58" height="1.58" transform="translate(189.004 319.496)"/><rect class="c" width="1.674" height="1.677" transform="translate(192.09 312.897)"/><rect class="c" width="3.086" height="1.68" transform="translate(189.004 314.573)"/><rect class="c" width="1.538" height="3.243" transform="translate(187.466 316.253)"/><path class="c" d="M207.556,337.292v1.592h-1.593v-1.592h-2.643v1.147H201.9v1.415h1.582v1.577H201.9v-1.577h-1.681v2.473h-1.59V343.9h-1.055v1.585h-1.16a88.906,88.906,0,0,0-5.556,10.439c-3.56-4.953-6.323-6.916-8.5-7.626-1.173-.353-2.588.925-.638,2.936,4.478,4.924,5.888,9,7.249,12.255.72,1.715,3.948,1.982,4.6.235a52.829,52.829,0,0,1,5.743-11.245v-1.765h1.263v-1.592H201.9v-1.845h1.586V345.5h-1.6v-1.616h1.6V345.5h1.57l0-1.6h1.258v-1.931h1.417v-1.328h1.363v-3.353Z" transform="translate(-20.09 -16.216)"/></g></svg>