<svg xmlns="http://www.w3.org/2000/svg" width="116.297" height="34.902" viewBox="0 0 116.297 34.902"><defs><style>.a{fill:#fff;}</style></defs><g transform="translate(-616.5 -2731.908)"><path class="a" d="M32.439,18.869h-4.03V13.955h-3.3V26.717h3.3v-4.95h4.03v4.95h3.32V13.955h-3.32Zm8.188-4.914L36.482,26.717h3.167l.862-2.726h3.858l.864,2.726h3.512L44.33,13.955Zm.441,7.618,1.325-4.547h.075l1.286,4.547Zm17.119,1.867c-.524-1.187-.431-2.117-1.13-2.614l-.009-.017-.007,0a3.608,3.608,0,0,0,1.953-3.231c0-2.725-1.98-3.626-4.932-3.626h-4.57V26.718h3.3V21.94h.784c.9,0,1.045.864,1.323,1.46l.625,1.549a2.961,2.961,0,0,0,3.362,1.973l1.351-2.813a2.217,2.217,0,0,1-.337.076,1.513,1.513,0,0,1-1.718-.745m-4.145-4.035H52.8V16.527h1c1.192,0,1.824.269,1.824,1.324a1.4,1.4,0,0,1-1.574,1.555m10.515-5.451H61.235V26.717H68.25l1.394-2.9H64.558Zm9.449,7.693h2.953l1.385-2.876H74.006v-1.94h5.049V13.954H70.707V26.716h8.48l0-2.879H74.006ZM91.749,27.7a10.86,10.86,0,0,1-3.495-1.267c2-.864,3.222-2.879,3.222-6.065,0-4.875-2.588-6.641-5.544-6.641-2.78,0-5.932,1.728-5.932,6.641,0,3.878,1.652,6.065,4.529,6.487l-.924,1.925a1.833,1.833,0,0,1,.679-.308A4.658,4.658,0,0,1,85.53,28.4c2.223.058,3.454,1.765,6.18,1.86a9.057,9.057,0,0,0,1.015,0l1.346-2.8a4.808,4.808,0,0,1-.981.307,2.969,2.969,0,0,1-1.341-.077m-5.932-3.32c-2.016,0-2.4-2.3-2.4-4.067,0-1.882.613-3.8,2.32-3.8,1.919,0,2.341,2.32,2.341,3.915,0,1.94-.517,3.952-2.265,3.952M99.833,22.4a1.61,1.61,0,0,1-1.706,1.8c-1.056,0-1.805-.443-1.805-1.9V13.955h-3.3v8.54c0,3.109,1.708,4.453,5.026,4.453,3.015,0,5.087-1.573,5.087-4.164V13.955h-3.3ZM118.3,13.955V20.9h-.042l-4.2-6.947h-3.053V26.717h3.264V19.635h.057l4.337,7.082h2.916V13.955Zm-12.89,12.762h3.3V13.955h-3.3Z" transform="translate(611.218 2729.021)"/><path class="a" d="M6.359,15.982H10.39V11.068H13.7l0,.007L8.384,0,3.067,11.068H6.359Zm7.351-4.9V23.816l-.009.017h-3.31V18.88H6.359v4.952H3.067l-.008-.017V11.085L0,17.45,8.384,34.9,16.767,17.45Z" transform="translate(616.5 2731.908)"/></g></svg>